<svg xmlns="http://www.w3.org/2000/svg" width="49" height="49" viewBox="0 0 49 49">
  <g id="Grupo_894" data-name="Grupo 894" transform="translate(0.5 0.5)">
    <g id="Grupo_746" data-name="Grupo 746" transform="translate(11.397 6.031)">
      <g id="Grupo_745" data-name="Grupo 745">
        <path id="Caminho_104" data-name="Caminho 104" d="M156.8,64.859a1.809,1.809,0,0,0-2.558,0L132.538,86.5l-7.83-8.5a1.809,1.809,0,0,0-2.662,2.451l9.106,9.889a1.807,1.807,0,0,0,1.292.583h.039a1.811,1.811,0,0,0,1.277-.528l23.035-22.975A1.809,1.809,0,0,0,156.8,64.859Z" transform="translate(-121.568 -64.327)" fill="#fff" stroke="#fff" stroke-width="1"/>
      </g>
    </g>
    <g id="Grupo_748" data-name="Grupo 748">
      <g id="Grupo_747" data-name="Grupo 747">
        <g id="Grupo_893" data-name="Grupo 893">
          <path id="Caminho_105" data-name="Caminho 105" d="M46.191,22.191A1.809,1.809,0,0,0,44.382,24,20.382,20.382,0,1,1,24,3.618,1.809,1.809,0,1,0,24,0,24,24,0,1,0,48,24,1.809,1.809,0,0,0,46.191,22.191Z" fill="#fff" stroke="#fff" stroke-width="1"/>
        </g>
      </g>
    </g>
  </g>
</svg>
