<svg xmlns="http://www.w3.org/2000/svg" width="52.404" height="43.769" viewBox="0 0 52.404 43.769">
  <g id="shopping-basket" transform="translate(0 -42.184)">
    <g id="Grupo_736" data-name="Grupo 736" transform="translate(3.577 57.836)">
      <g id="Grupo_735" data-name="Grupo 735" transform="translate(0 0)">
        <path id="Caminho_99" data-name="Caminho 99" d="M76.709,195.11l-4.467,24.568H42.909l-4.467-24.567-3.491.635,4.732,26.025a1.775,1.775,0,0,0,1.746,1.457H73.722a1.774,1.774,0,0,0,1.745-1.457L80.2,195.745Z" transform="translate(-34.95 -195.11)" fill="#fff"/>
      </g>
    </g>
    <g id="Grupo_738" data-name="Grupo 738" transform="translate(0 56.379)">
      <g id="Grupo_737" data-name="Grupo 737">
        <path id="Caminho_100" data-name="Caminho 100" d="M50.63,180.877H1.774a1.774,1.774,0,1,0,0,3.549H50.63a1.774,1.774,0,0,0,0-3.549Z" transform="translate(0 -180.877)" fill="#fff"/>
      </g>
    </g>
    <g id="Grupo_740" data-name="Grupo 740" transform="translate(32.117 42.184)">
      <g id="Grupo_739" data-name="Grupo 739" transform="translate(0 0)">
        <path id="Caminho_101" data-name="Caminho 101" d="M326.895,57.144l-9.878-14.2a1.775,1.775,0,0,0-2.914,2.027l9.878,14.2a1.775,1.775,0,0,0,2.914-2.027Z" transform="translate(-313.786 -42.187)" fill="#fff"/>
      </g>
    </g>
    <g id="Grupo_742" data-name="Grupo 742" transform="translate(7.689 42.184)">
      <g id="Grupo_741" data-name="Grupo 741" transform="translate(0 0)">
        <path id="Caminho_102" data-name="Caminho 102" d="M87.792,42.5a1.773,1.773,0,0,0-2.47.443l-9.878,14.2a1.774,1.774,0,1,0,2.913,2.027l9.878-14.2A1.775,1.775,0,0,0,87.792,42.5Z" transform="translate(-75.126 -42.184)" fill="#fff"/>
      </g>
    </g>
    <g id="Grupo_744" data-name="Grupo 744" transform="translate(16.738 63.477)">
      <g id="Grupo_743" data-name="Grupo 743" transform="translate(0 0)">
        <path id="Caminho_103" data-name="Caminho 103" d="M181.9,250.753a1.774,1.774,0,0,0-2.509-.024l-8.44,8.284-4.437-4.068a1.775,1.775,0,0,0-2.4,2.617l5.678,5.2a1.776,1.776,0,0,0,2.443-.042l9.641-9.464A1.774,1.774,0,0,0,181.9,250.753Z" transform="translate(-163.536 -250.221)" fill="#fff"/>
      </g>
    </g>
  </g>
</svg>
