<svg xmlns="http://www.w3.org/2000/svg" width="47.254" height="46.965" viewBox="0 0 47.254 46.965">
  <g id="invoice" transform="translate(0 -1.568)">
    <g id="Grupo_728" data-name="Grupo 728" transform="translate(7.991 45.058)">
      <g id="Grupo_727" data-name="Grupo 727">
        <rect id="Retângulo_161" data-name="Retângulo 161" width="30.576" height="3.475" fill="#fff"/>
      </g>
    </g>
    <g id="Grupo_730" data-name="Grupo 730" transform="translate(16.33 17.087)">
      <g id="Grupo_729" data-name="Grupo 729">
        <path id="Caminho_96" data-name="Caminho 96" d="M189.392,169.726H178.678a1.737,1.737,0,1,0,0,3.475h10.713a1.737,1.737,0,0,0,0-3.475Z" transform="translate(-176.941 -169.726)" fill="#fff"/>
      </g>
    </g>
    <g id="Grupo_732" data-name="Grupo 732" transform="translate(16.33 25.195)">
      <g id="Grupo_731" data-name="Grupo 731">
        <path id="Caminho_97" data-name="Caminho 97" d="M197.5,257.569H178.678a1.737,1.737,0,1,0,0,3.475H197.5a1.737,1.737,0,0,0,0-3.475Z" transform="translate(-176.941 -257.569)" fill="#fff"/>
      </g>
    </g>
    <g id="Grupo_734" data-name="Grupo 734" transform="translate(0 1.568)">
      <g id="Grupo_733" data-name="Grupo 733" transform="translate(0 0)">
        <path id="Caminho_98" data-name="Caminho 98" d="M46.23,1.779a1.739,1.739,0,0,0-1.865.283L39.5,6.366,34.63,2.01a1.737,1.737,0,0,0-2.316,0L27.449,6.36,22.584,2.01a1.736,1.736,0,0,0-2.316,0L15.4,6.366l-4.865-4.3a1.737,1.737,0,0,0-2.889,1.3V34.287H1.737A1.737,1.737,0,0,0,0,36.024v4.227a8.29,8.29,0,0,0,8.281,8.281V45.058a4.812,4.812,0,0,1-4.806-4.806v-2.49H30.692v2.49a8.281,8.281,0,1,0,16.562,0V3.363A1.737,1.737,0,0,0,46.23,1.779ZM43.78,40.251a4.806,4.806,0,1,1-9.613,0V36.024a1.737,1.737,0,0,0-1.737-1.737H11.119V7.219l3.135,2.773a1.737,1.737,0,0,0,2.309-.006l4.864-4.35,4.864,4.35a1.737,1.737,0,0,0,2.316,0l4.865-4.35,4.864,4.35a1.738,1.738,0,0,0,2.309.006L43.78,7.219Z" transform="translate(0 -1.568)" fill="#fff"/>
      </g>
    </g>
  </g>
</svg>
